<!-- icon666.com - MILLIONS OF FREE VECTOR ICONS --><svg viewBox="-4 0 472 472" xmlns="http://www.w3.org/2000/svg"><path d="m16 0h432c8.835938 0 16 7.164062 16 16v272c0 8.835938-7.164062 16-16 16h-432c-8.835938 0-16-7.164062-16-16v-272c0-8.835938 7.164062-16 16-16zm0 0" fill="#57a4ff"></path><g fill="#a2001d"><path d="m16 416h48c8.835938 0 16 7.164062 16 16v40h-80v-40c0-8.835938 7.164062-16 16-16zm0 0"></path><path d="m144 416h48c8.835938 0 16 7.164062 16 16v40h-80v-40c0-8.835938 7.164062-16 16-16zm0 0"></path><path d="m272 416h48c8.835938 0 16 7.164062 16 16v40h-80v-40c0-8.835938 7.164062-16 16-16zm0 0"></path><path d="m400 416h48c8.835938 0 16 7.164062 16 16v40h-80v-40c0-8.835938 7.164062-16 16-16zm0 0"></path></g><path d="m336 352h48c8.835938 0 16 7.164062 16 16v24h-80v-24c0-8.835938 7.164062-16 16-16zm0 0" fill="#d80027"></path><path d="m208 352h48c8.835938 0 16 7.164062 16 16v24h-80v-24c0-8.835938 7.164062-16 16-16zm0 0" fill="#d80027"></path><path d="m80 352h48c8.835938 0 16 7.164062 16 16v24h-80v-24c0-8.835938 7.164062-16 16-16zm0 0" fill="#d80027"></path><path d="m0 32v256c0 8.835938 7.164062 16 16 16h256c-72.152344.042969-141.359375-28.601562-192.378906-79.621094-51.019532-51.019531-79.6640628-120.226562-79.621094-192.378906zm0 0" fill="#2488ff"></path></svg>